<mxfile host="app.diagrams.net" modified="2023-12-05T09:10:31.651Z" agent="Mozilla/5.0 (Windows NT 10.0; Win64; x64) AppleWebKit/537.36 (KHTML, like Gecko) Chrome/118.0.5993.2470 YaBrowser/23.11.0.2470 Yowser/2.5 Safari/537.36" etag="tCrV0YdBbiDE1nZ-E5bF" version="22.1.5" type="device">
  <diagram name="Страница — 1" id="zo7ZfbR6l3rVReLenrzR">
    <mxGraphModel dx="2045" dy="261" grid="1" gridSize="10" guides="1" tooltips="1" connect="1" arrows="1" fold="1" page="1" pageScale="1" pageWidth="827" pageHeight="1169" math="0" shadow="0">
      <root>
        <mxCell id="0" />
        <mxCell id="1" parent="0" />
        <mxCell id="G1UuAzEobW7vH8zXm527-1" value="" style="ellipse;whiteSpace=wrap;html=1;" parent="1" vertex="1">
          <mxGeometry x="110" y="390" width="20" height="20" as="geometry" />
        </mxCell>
        <mxCell id="G1UuAzEobW7vH8zXm527-3" value="" style="endArrow=none;html=1;rounded=0;exitX=1;exitY=0.5;exitDx=0;exitDy=0;" parent="1" source="G1UuAzEobW7vH8zXm527-1" edge="1">
          <mxGeometry width="50" height="50" relative="1" as="geometry">
            <mxPoint x="390" y="340" as="sourcePoint" />
            <mxPoint x="190" y="400" as="targetPoint" />
          </mxGeometry>
        </mxCell>
        <mxCell id="G1UuAzEobW7vH8zXm527-4" value="200" style="text;html=1;align=center;verticalAlign=middle;resizable=0;points=[];autosize=1;strokeColor=none;fillColor=none;" parent="1" vertex="1">
          <mxGeometry x="140" y="398" width="40" height="30" as="geometry" />
        </mxCell>
        <mxCell id="G1UuAzEobW7vH8zXm527-5" value="стена" style="text;html=1;align=center;verticalAlign=middle;resizable=0;points=[];autosize=1;strokeColor=none;fillColor=none;" parent="1" vertex="1">
          <mxGeometry x="125" y="368" width="50" height="30" as="geometry" />
        </mxCell>
        <mxCell id="G1UuAzEobW7vH8zXm527-6" value="" style="ellipse;whiteSpace=wrap;html=1;" parent="1" vertex="1">
          <mxGeometry x="190" y="390" width="20" height="20" as="geometry" />
        </mxCell>
        <mxCell id="G1UuAzEobW7vH8zXm527-7" value="" style="ellipse;whiteSpace=wrap;html=1;" parent="1" vertex="1">
          <mxGeometry x="190" y="280" width="20" height="20" as="geometry" />
        </mxCell>
        <mxCell id="G1UuAzEobW7vH8zXm527-8" value="" style="ellipse;whiteSpace=wrap;html=1;" parent="1" vertex="1">
          <mxGeometry x="370" y="280" width="20" height="20" as="geometry" />
        </mxCell>
        <mxCell id="G1UuAzEobW7vH8zXm527-9" value="" style="ellipse;whiteSpace=wrap;html=1;" parent="1" vertex="1">
          <mxGeometry x="370" y="390" width="20" height="20" as="geometry" />
        </mxCell>
        <mxCell id="G1UuAzEobW7vH8zXm527-10" value="" style="ellipse;whiteSpace=wrap;html=1;" parent="1" vertex="1">
          <mxGeometry x="440" y="390" width="20" height="20" as="geometry" />
        </mxCell>
        <mxCell id="G1UuAzEobW7vH8zXm527-11" value="" style="ellipse;whiteSpace=wrap;html=1;" parent="1" vertex="1">
          <mxGeometry x="550" y="390" width="20" height="20" as="geometry" />
        </mxCell>
        <mxCell id="G1UuAzEobW7vH8zXm527-12" value="" style="endArrow=none;html=1;rounded=0;exitX=0.5;exitY=0;exitDx=0;exitDy=0;entryX=0.5;entryY=1;entryDx=0;entryDy=0;" parent="1" source="G1UuAzEobW7vH8zXm527-6" target="G1UuAzEobW7vH8zXm527-7" edge="1">
          <mxGeometry width="50" height="50" relative="1" as="geometry">
            <mxPoint x="390" y="340" as="sourcePoint" />
            <mxPoint x="440" y="290" as="targetPoint" />
          </mxGeometry>
        </mxCell>
        <mxCell id="G1UuAzEobW7vH8zXm527-13" value="" style="endArrow=none;html=1;rounded=0;exitX=1;exitY=0.5;exitDx=0;exitDy=0;" parent="1" source="G1UuAzEobW7vH8zXm527-7" edge="1">
          <mxGeometry width="50" height="50" relative="1" as="geometry">
            <mxPoint x="390" y="340" as="sourcePoint" />
            <mxPoint x="370" y="290" as="targetPoint" />
          </mxGeometry>
        </mxCell>
        <mxCell id="G1UuAzEobW7vH8zXm527-14" value="" style="endArrow=none;html=1;rounded=0;exitX=0.5;exitY=1;exitDx=0;exitDy=0;entryX=0.5;entryY=0;entryDx=0;entryDy=0;" parent="1" source="G1UuAzEobW7vH8zXm527-8" target="G1UuAzEobW7vH8zXm527-9" edge="1">
          <mxGeometry width="50" height="50" relative="1" as="geometry">
            <mxPoint x="390" y="340" as="sourcePoint" />
            <mxPoint x="440" y="290" as="targetPoint" />
          </mxGeometry>
        </mxCell>
        <mxCell id="G1UuAzEobW7vH8zXm527-15" value="подъем&lt;br&gt;1700" style="text;html=1;align=center;verticalAlign=middle;resizable=0;points=[];autosize=1;strokeColor=none;fillColor=none;" parent="1" vertex="1">
          <mxGeometry x="135" y="313" width="70" height="40" as="geometry" />
        </mxCell>
        <mxCell id="G1UuAzEobW7vH8zXm527-16" value="3500" style="text;html=1;align=center;verticalAlign=middle;resizable=0;points=[];autosize=1;strokeColor=none;fillColor=none;" parent="1" vertex="1">
          <mxGeometry x="270" y="258" width="50" height="30" as="geometry" />
        </mxCell>
        <mxCell id="G1UuAzEobW7vH8zXm527-17" value="спуск" style="text;html=1;align=center;verticalAlign=middle;resizable=0;points=[];autosize=1;strokeColor=none;fillColor=none;" parent="1" vertex="1">
          <mxGeometry x="375" y="308" width="50" height="30" as="geometry" />
        </mxCell>
        <mxCell id="G1UuAzEobW7vH8zXm527-18" value="1700" style="text;html=1;align=center;verticalAlign=middle;resizable=0;points=[];autosize=1;strokeColor=none;fillColor=none;" parent="1" vertex="1">
          <mxGeometry x="375" y="323" width="50" height="30" as="geometry" />
        </mxCell>
        <mxCell id="G1UuAzEobW7vH8zXm527-19" value="" style="endArrow=none;html=1;rounded=0;exitX=1;exitY=0.5;exitDx=0;exitDy=0;entryX=0;entryY=0.5;entryDx=0;entryDy=0;" parent="1" source="G1UuAzEobW7vH8zXm527-9" target="G1UuAzEobW7vH8zXm527-10" edge="1">
          <mxGeometry width="50" height="50" relative="1" as="geometry">
            <mxPoint x="390" y="340" as="sourcePoint" />
            <mxPoint x="440" y="290" as="targetPoint" />
          </mxGeometry>
        </mxCell>
        <mxCell id="G1UuAzEobW7vH8zXm527-20" value="200" style="text;html=1;align=center;verticalAlign=middle;resizable=0;points=[];autosize=1;strokeColor=none;fillColor=none;" parent="1" vertex="1">
          <mxGeometry x="390" y="398" width="40" height="30" as="geometry" />
        </mxCell>
        <mxCell id="G1UuAzEobW7vH8zXm527-21" value="стена" style="text;html=1;align=center;verticalAlign=middle;resizable=0;points=[];autosize=1;strokeColor=none;fillColor=none;" parent="1" vertex="1">
          <mxGeometry x="385" y="368" width="50" height="30" as="geometry" />
        </mxCell>
        <mxCell id="G1UuAzEobW7vH8zXm527-22" value="" style="endArrow=none;html=1;rounded=0;entryX=0;entryY=0.5;entryDx=0;entryDy=0;" parent="1" target="G1UuAzEobW7vH8zXm527-11" edge="1">
          <mxGeometry width="50" height="50" relative="1" as="geometry">
            <mxPoint x="460" y="400" as="sourcePoint" />
            <mxPoint x="510" y="353" as="targetPoint" />
          </mxGeometry>
        </mxCell>
        <mxCell id="G1UuAzEobW7vH8zXm527-24" value="" style="ellipse;whiteSpace=wrap;html=1;" parent="1" vertex="1">
          <mxGeometry x="74" y="659" width="20" height="20" as="geometry" />
        </mxCell>
        <mxCell id="G1UuAzEobW7vH8zXm527-25" value="" style="endArrow=none;html=1;rounded=0;exitX=1;exitY=0.5;exitDx=0;exitDy=0;" parent="1" source="G1UuAzEobW7vH8zXm527-24" edge="1">
          <mxGeometry width="50" height="50" relative="1" as="geometry">
            <mxPoint x="354" y="609" as="sourcePoint" />
            <mxPoint x="154" y="669" as="targetPoint" />
          </mxGeometry>
        </mxCell>
        <mxCell id="G1UuAzEobW7vH8zXm527-26" value="200" style="text;html=1;align=center;verticalAlign=middle;resizable=0;points=[];autosize=1;strokeColor=none;fillColor=none;" parent="1" vertex="1">
          <mxGeometry x="104" y="667" width="40" height="30" as="geometry" />
        </mxCell>
        <mxCell id="G1UuAzEobW7vH8zXm527-27" value="&lt;b&gt;стена&lt;/b&gt;" style="text;html=1;align=center;verticalAlign=middle;resizable=0;points=[];autosize=1;strokeColor=none;fillColor=none;" parent="1" vertex="1">
          <mxGeometry x="94" y="637" width="60" height="30" as="geometry" />
        </mxCell>
        <mxCell id="G1UuAzEobW7vH8zXm527-28" value="" style="ellipse;whiteSpace=wrap;html=1;" parent="1" vertex="1">
          <mxGeometry x="154" y="659" width="20" height="20" as="geometry" />
        </mxCell>
        <mxCell id="G1UuAzEobW7vH8zXm527-29" value="" style="ellipse;whiteSpace=wrap;html=1;" parent="1" vertex="1">
          <mxGeometry x="154" y="594" width="20" height="20" as="geometry" />
        </mxCell>
        <mxCell id="G1UuAzEobW7vH8zXm527-34" value="" style="endArrow=none;html=1;rounded=0;exitX=0.5;exitY=0;exitDx=0;exitDy=0;entryX=0.5;entryY=1;entryDx=0;entryDy=0;" parent="1" source="G1UuAzEobW7vH8zXm527-28" target="G1UuAzEobW7vH8zXm527-29" edge="1">
          <mxGeometry width="50" height="50" relative="1" as="geometry">
            <mxPoint x="354" y="654" as="sourcePoint" />
            <mxPoint x="404" y="604" as="targetPoint" />
          </mxGeometry>
        </mxCell>
        <mxCell id="G1UuAzEobW7vH8zXm527-35" value="" style="endArrow=none;html=1;rounded=0;exitX=1;exitY=0.5;exitDx=0;exitDy=0;" parent="1" source="G1UuAzEobW7vH8zXm527-30" edge="1">
          <mxGeometry width="50" height="50" relative="1" as="geometry">
            <mxPoint x="384" y="654" as="sourcePoint" />
            <mxPoint x="364" y="604" as="targetPoint" />
          </mxGeometry>
        </mxCell>
        <mxCell id="G1UuAzEobW7vH8zXm527-36" value="" style="endArrow=none;html=1;rounded=0;exitX=1;exitY=0.5;exitDx=0;exitDy=0;" parent="1" source="G1UuAzEobW7vH8zXm527-51" edge="1">
          <mxGeometry width="50" height="50" relative="1" as="geometry">
            <mxPoint x="384" y="654" as="sourcePoint" />
            <mxPoint x="434" y="604" as="targetPoint" />
          </mxGeometry>
        </mxCell>
        <mxCell id="G1UuAzEobW7vH8zXm527-37" value="&lt;b&gt;подъем&lt;br&gt;1700&lt;/b&gt;" style="text;html=1;align=center;verticalAlign=middle;resizable=0;points=[];autosize=1;strokeColor=none;fillColor=none;" parent="1" vertex="1">
          <mxGeometry x="159" y="622" width="70" height="40" as="geometry" />
        </mxCell>
        <mxCell id="G1UuAzEobW7vH8zXm527-38" value="300" style="text;html=1;align=center;verticalAlign=middle;resizable=0;points=[];autosize=1;strokeColor=none;fillColor=none;" parent="1" vertex="1">
          <mxGeometry x="174" y="570" width="40" height="30" as="geometry" />
        </mxCell>
        <mxCell id="G1UuAzEobW7vH8zXm527-48" value="" style="endArrow=none;html=1;rounded=0;exitX=1;exitY=0.5;exitDx=0;exitDy=0;" parent="1" source="BsjhRukXPoWs5F6D_RNB-2" target="G1UuAzEobW7vH8zXm527-30" edge="1">
          <mxGeometry width="50" height="50" relative="1" as="geometry">
            <mxPoint x="204" y="604" as="sourcePoint" />
            <mxPoint x="364" y="604" as="targetPoint" />
          </mxGeometry>
        </mxCell>
        <mxCell id="G1UuAzEobW7vH8zXm527-30" value="" style="ellipse;whiteSpace=wrap;html=1;" parent="1" vertex="1">
          <mxGeometry x="274" y="594" width="20" height="20" as="geometry" />
        </mxCell>
        <mxCell id="G1UuAzEobW7vH8zXm527-49" value="12000" style="text;html=1;align=center;verticalAlign=middle;resizable=0;points=[];autosize=1;strokeColor=none;fillColor=none;" parent="1" vertex="1">
          <mxGeometry x="299" y="570" width="60" height="30" as="geometry" />
        </mxCell>
        <mxCell id="G1UuAzEobW7vH8zXm527-52" value="" style="endArrow=none;html=1;rounded=0;exitX=1;exitY=0.5;exitDx=0;exitDy=0;entryX=0;entryY=0.5;entryDx=0;entryDy=0;" parent="1" source="G1UuAzEobW7vH8zXm527-50" target="G1UuAzEobW7vH8zXm527-51" edge="1">
          <mxGeometry width="50" height="50" relative="1" as="geometry">
            <mxPoint x="324" y="642" as="sourcePoint" />
            <mxPoint x="374" y="592" as="targetPoint" />
          </mxGeometry>
        </mxCell>
        <mxCell id="G1UuAzEobW7vH8zXm527-53" value="200" style="text;html=1;align=center;verticalAlign=middle;resizable=0;points=[];autosize=1;strokeColor=none;fillColor=none;" parent="1" vertex="1">
          <mxGeometry x="389" y="570" width="40" height="30" as="geometry" />
        </mxCell>
        <mxCell id="G1UuAzEobW7vH8zXm527-54" value="" style="endArrow=none;html=1;rounded=0;exitX=1;exitY=0.5;exitDx=0;exitDy=0;" parent="1" source="G1UuAzEobW7vH8zXm527-51" edge="1">
          <mxGeometry width="50" height="50" relative="1" as="geometry">
            <mxPoint x="524" y="600" as="sourcePoint" />
            <mxPoint x="534" y="604" as="targetPoint" />
          </mxGeometry>
        </mxCell>
        <mxCell id="G1UuAzEobW7vH8zXm527-57" value="" style="endArrow=none;html=1;rounded=0;exitX=1;exitY=0.5;exitDx=0;exitDy=0;" parent="1" source="G1UuAzEobW7vH8zXm527-30" target="G1UuAzEobW7vH8zXm527-50" edge="1">
          <mxGeometry width="50" height="50" relative="1" as="geometry">
            <mxPoint x="294" y="604" as="sourcePoint" />
            <mxPoint x="434" y="604" as="targetPoint" />
          </mxGeometry>
        </mxCell>
        <mxCell id="G1UuAzEobW7vH8zXm527-50" value="" style="ellipse;whiteSpace=wrap;html=1;" parent="1" vertex="1">
          <mxGeometry x="369" y="594" width="20" height="20" as="geometry" />
        </mxCell>
        <mxCell id="G1UuAzEobW7vH8zXm527-59" value="" style="endArrow=none;html=1;rounded=0;exitX=1;exitY=0.5;exitDx=0;exitDy=0;" parent="1" source="G1UuAzEobW7vH8zXm527-50" target="G1UuAzEobW7vH8zXm527-51" edge="1">
          <mxGeometry width="50" height="50" relative="1" as="geometry">
            <mxPoint x="389" y="604" as="sourcePoint" />
            <mxPoint x="434" y="604" as="targetPoint" />
          </mxGeometry>
        </mxCell>
        <mxCell id="G1UuAzEobW7vH8zXm527-51" value="" style="ellipse;whiteSpace=wrap;html=1;" parent="1" vertex="1">
          <mxGeometry x="424" y="594" width="20" height="20" as="geometry" />
        </mxCell>
        <mxCell id="G1UuAzEobW7vH8zXm527-60" value="5750" style="text;html=1;align=center;verticalAlign=middle;resizable=0;points=[];autosize=1;strokeColor=none;fillColor=none;" parent="1" vertex="1">
          <mxGeometry x="459" y="570" width="50" height="30" as="geometry" />
        </mxCell>
        <mxCell id="G1UuAzEobW7vH8zXm527-61" value="" style="endArrow=none;html=1;rounded=0;exitX=1;exitY=0.5;exitDx=0;exitDy=0;" parent="1" source="G1UuAzEobW7vH8zXm527-67" edge="1">
          <mxGeometry width="50" height="50" relative="1" as="geometry">
            <mxPoint x="524" y="654" as="sourcePoint" />
            <mxPoint x="574" y="604" as="targetPoint" />
          </mxGeometry>
        </mxCell>
        <mxCell id="G1UuAzEobW7vH8zXm527-62" value="" style="endArrow=none;html=1;rounded=0;exitX=1;exitY=0.5;exitDx=0;exitDy=0;entryX=0;entryY=0.5;entryDx=0;entryDy=0;" parent="1" source="G1UuAzEobW7vH8zXm527-65" target="G1UuAzEobW7vH8zXm527-67" edge="1">
          <mxGeometry width="50" height="50" relative="1" as="geometry">
            <mxPoint x="464" y="642" as="sourcePoint" />
            <mxPoint x="514" y="592" as="targetPoint" />
          </mxGeometry>
        </mxCell>
        <mxCell id="G1UuAzEobW7vH8zXm527-63" value="200" style="text;html=1;align=center;verticalAlign=middle;resizable=0;points=[];autosize=1;strokeColor=none;fillColor=none;" parent="1" vertex="1">
          <mxGeometry x="529" y="570" width="40" height="30" as="geometry" />
        </mxCell>
        <mxCell id="G1UuAzEobW7vH8zXm527-64" value="" style="endArrow=none;html=1;rounded=0;exitX=1;exitY=0.5;exitDx=0;exitDy=0;" parent="1" source="G1UuAzEobW7vH8zXm527-67" edge="1">
          <mxGeometry width="50" height="50" relative="1" as="geometry">
            <mxPoint x="664" y="600" as="sourcePoint" />
            <mxPoint x="674" y="604" as="targetPoint" />
          </mxGeometry>
        </mxCell>
        <mxCell id="G1UuAzEobW7vH8zXm527-65" value="" style="ellipse;whiteSpace=wrap;html=1;" parent="1" vertex="1">
          <mxGeometry x="509" y="594" width="20" height="20" as="geometry" />
        </mxCell>
        <mxCell id="G1UuAzEobW7vH8zXm527-66" value="" style="endArrow=none;html=1;rounded=0;exitX=1;exitY=0.5;exitDx=0;exitDy=0;" parent="1" source="G1UuAzEobW7vH8zXm527-65" target="G1UuAzEobW7vH8zXm527-67" edge="1">
          <mxGeometry width="50" height="50" relative="1" as="geometry">
            <mxPoint x="529" y="604" as="sourcePoint" />
            <mxPoint x="574" y="604" as="targetPoint" />
          </mxGeometry>
        </mxCell>
        <mxCell id="G1UuAzEobW7vH8zXm527-67" value="" style="ellipse;whiteSpace=wrap;html=1;" parent="1" vertex="1">
          <mxGeometry x="564" y="594" width="20" height="20" as="geometry" />
        </mxCell>
        <mxCell id="G1UuAzEobW7vH8zXm527-68" value="8970" style="text;html=1;align=center;verticalAlign=middle;resizable=0;points=[];autosize=1;strokeColor=none;fillColor=none;" parent="1" vertex="1">
          <mxGeometry x="599" y="570" width="50" height="30" as="geometry" />
        </mxCell>
        <mxCell id="G1UuAzEobW7vH8zXm527-69" value="" style="endArrow=none;html=1;rounded=0;exitX=1;exitY=0.5;exitDx=0;exitDy=0;" parent="1" source="G1UuAzEobW7vH8zXm527-74" edge="1">
          <mxGeometry width="50" height="50" relative="1" as="geometry">
            <mxPoint x="664" y="654" as="sourcePoint" />
            <mxPoint x="714" y="604" as="targetPoint" />
          </mxGeometry>
        </mxCell>
        <mxCell id="G1UuAzEobW7vH8zXm527-70" value="" style="endArrow=none;html=1;rounded=0;exitX=1;exitY=0.5;exitDx=0;exitDy=0;entryX=0;entryY=0.5;entryDx=0;entryDy=0;" parent="1" source="G1UuAzEobW7vH8zXm527-72" target="G1UuAzEobW7vH8zXm527-74" edge="1">
          <mxGeometry width="50" height="50" relative="1" as="geometry">
            <mxPoint x="604" y="642" as="sourcePoint" />
            <mxPoint x="654" y="592" as="targetPoint" />
          </mxGeometry>
        </mxCell>
        <mxCell id="G1UuAzEobW7vH8zXm527-71" value="100" style="text;html=1;align=center;verticalAlign=middle;resizable=0;points=[];autosize=1;strokeColor=none;fillColor=none;" parent="1" vertex="1">
          <mxGeometry x="669" y="570" width="40" height="30" as="geometry" />
        </mxCell>
        <mxCell id="G1UuAzEobW7vH8zXm527-72" value="" style="ellipse;whiteSpace=wrap;html=1;" parent="1" vertex="1">
          <mxGeometry x="649" y="594" width="20" height="20" as="geometry" />
        </mxCell>
        <mxCell id="G1UuAzEobW7vH8zXm527-73" value="" style="endArrow=none;html=1;rounded=0;exitX=1;exitY=0.5;exitDx=0;exitDy=0;" parent="1" source="G1UuAzEobW7vH8zXm527-72" target="G1UuAzEobW7vH8zXm527-74" edge="1">
          <mxGeometry width="50" height="50" relative="1" as="geometry">
            <mxPoint x="669" y="604" as="sourcePoint" />
            <mxPoint x="714" y="604" as="targetPoint" />
          </mxGeometry>
        </mxCell>
        <mxCell id="G1UuAzEobW7vH8zXm527-74" value="" style="ellipse;whiteSpace=wrap;html=1;" parent="1" vertex="1">
          <mxGeometry x="704" y="594" width="20" height="20" as="geometry" />
        </mxCell>
        <mxCell id="G1UuAzEobW7vH8zXm527-75" value="3000" style="text;html=1;align=center;verticalAlign=middle;resizable=0;points=[];autosize=1;strokeColor=none;fillColor=none;" parent="1" vertex="1">
          <mxGeometry x="739" y="570" width="50" height="30" as="geometry" />
        </mxCell>
        <mxCell id="G1UuAzEobW7vH8zXm527-76" value="" style="endArrow=none;html=1;rounded=0;exitX=1;exitY=0.5;exitDx=0;exitDy=0;" parent="1" source="G1UuAzEobW7vH8zXm527-74" edge="1">
          <mxGeometry width="50" height="50" relative="1" as="geometry">
            <mxPoint x="634" y="642" as="sourcePoint" />
            <mxPoint x="804" y="604" as="targetPoint" />
          </mxGeometry>
        </mxCell>
        <mxCell id="G1UuAzEobW7vH8zXm527-80" value="" style="ellipse;whiteSpace=wrap;html=1;" parent="1" vertex="1">
          <mxGeometry x="789" y="594" width="20" height="20" as="geometry" />
        </mxCell>
        <mxCell id="BsjhRukXPoWs5F6D_RNB-1" value="500" style="text;html=1;align=center;verticalAlign=middle;resizable=0;points=[];autosize=1;strokeColor=none;fillColor=none;" vertex="1" parent="1">
          <mxGeometry x="470" y="368" width="40" height="30" as="geometry" />
        </mxCell>
        <mxCell id="BsjhRukXPoWs5F6D_RNB-3" value="" style="endArrow=none;html=1;rounded=0;exitX=1;exitY=0.5;exitDx=0;exitDy=0;" edge="1" parent="1" source="G1UuAzEobW7vH8zXm527-29" target="BsjhRukXPoWs5F6D_RNB-2">
          <mxGeometry width="50" height="50" relative="1" as="geometry">
            <mxPoint x="174" y="604" as="sourcePoint" />
            <mxPoint x="274" y="604" as="targetPoint" />
          </mxGeometry>
        </mxCell>
        <mxCell id="BsjhRukXPoWs5F6D_RNB-2" value="" style="ellipse;whiteSpace=wrap;html=1;" vertex="1" parent="1">
          <mxGeometry x="214" y="594" width="20" height="20" as="geometry" />
        </mxCell>
        <mxCell id="BsjhRukXPoWs5F6D_RNB-4" value="200" style="text;html=1;align=center;verticalAlign=middle;resizable=0;points=[];autosize=1;strokeColor=none;fillColor=none;" vertex="1" parent="1">
          <mxGeometry x="234" y="570" width="40" height="30" as="geometry" />
        </mxCell>
        <mxCell id="BsjhRukXPoWs5F6D_RNB-5" value="" style="ellipse;whiteSpace=wrap;html=1;" vertex="1" parent="1">
          <mxGeometry x="789" y="594" width="20" height="20" as="geometry" />
        </mxCell>
        <mxCell id="BsjhRukXPoWs5F6D_RNB-6" value="" style="endArrow=none;html=1;rounded=0;exitX=0.5;exitY=1;exitDx=0;exitDy=0;entryX=0.5;entryY=0;entryDx=0;entryDy=0;" edge="1" parent="1" source="BsjhRukXPoWs5F6D_RNB-5" target="BsjhRukXPoWs5F6D_RNB-7">
          <mxGeometry width="50" height="50" relative="1" as="geometry">
            <mxPoint x="729" y="672" as="sourcePoint" />
            <mxPoint x="774" y="672" as="targetPoint" />
          </mxGeometry>
        </mxCell>
        <mxCell id="BsjhRukXPoWs5F6D_RNB-7" value="" style="ellipse;whiteSpace=wrap;html=1;" vertex="1" parent="1">
          <mxGeometry x="789" y="712" width="20" height="20" as="geometry" />
        </mxCell>
        <mxCell id="BsjhRukXPoWs5F6D_RNB-8" value="3000" style="text;html=1;align=center;verticalAlign=middle;resizable=0;points=[];autosize=1;strokeColor=none;fillColor=none;" vertex="1" parent="1">
          <mxGeometry x="799" y="654" width="50" height="30" as="geometry" />
        </mxCell>
        <mxCell id="BsjhRukXPoWs5F6D_RNB-9" value="" style="endArrow=none;html=1;rounded=0;exitX=1;exitY=0.5;exitDx=0;exitDy=0;" edge="1" parent="1" source="BsjhRukXPoWs5F6D_RNB-11">
          <mxGeometry width="50" height="50" relative="1" as="geometry">
            <mxPoint x="609" y="772" as="sourcePoint" />
            <mxPoint x="659" y="722" as="targetPoint" />
          </mxGeometry>
        </mxCell>
        <mxCell id="BsjhRukXPoWs5F6D_RNB-10" value="" style="endArrow=none;html=1;rounded=0;exitX=1;exitY=0.5;exitDx=0;exitDy=0;" edge="1" parent="1" source="BsjhRukXPoWs5F6D_RNB-16">
          <mxGeometry width="50" height="50" relative="1" as="geometry">
            <mxPoint x="749" y="718" as="sourcePoint" />
            <mxPoint x="759" y="722" as="targetPoint" />
          </mxGeometry>
        </mxCell>
        <mxCell id="BsjhRukXPoWs5F6D_RNB-11" value="" style="ellipse;whiteSpace=wrap;html=1;" vertex="1" parent="1">
          <mxGeometry x="654" y="712" width="20" height="20" as="geometry" />
        </mxCell>
        <mxCell id="BsjhRukXPoWs5F6D_RNB-12" value="200" style="text;html=1;align=center;verticalAlign=middle;resizable=0;points=[];autosize=1;strokeColor=none;fillColor=none;" vertex="1" parent="1">
          <mxGeometry x="674" y="688" width="40" height="30" as="geometry" />
        </mxCell>
        <mxCell id="BsjhRukXPoWs5F6D_RNB-13" value="" style="endArrow=none;html=1;rounded=0;exitX=1;exitY=0.5;exitDx=0;exitDy=0;" edge="1" parent="1" source="BsjhRukXPoWs5F6D_RNB-18">
          <mxGeometry width="50" height="50" relative="1" as="geometry">
            <mxPoint x="749" y="772" as="sourcePoint" />
            <mxPoint x="799" y="722" as="targetPoint" />
          </mxGeometry>
        </mxCell>
        <mxCell id="BsjhRukXPoWs5F6D_RNB-14" value="" style="endArrow=none;html=1;rounded=0;exitX=1;exitY=0.5;exitDx=0;exitDy=0;entryX=0;entryY=0.5;entryDx=0;entryDy=0;" edge="1" parent="1" source="BsjhRukXPoWs5F6D_RNB-16" target="BsjhRukXPoWs5F6D_RNB-18">
          <mxGeometry width="50" height="50" relative="1" as="geometry">
            <mxPoint x="689" y="760" as="sourcePoint" />
            <mxPoint x="739" y="710" as="targetPoint" />
          </mxGeometry>
        </mxCell>
        <mxCell id="BsjhRukXPoWs5F6D_RNB-15" value="8970" style="text;html=1;align=center;verticalAlign=middle;resizable=0;points=[];autosize=1;strokeColor=none;fillColor=none;" vertex="1" parent="1">
          <mxGeometry x="739" y="688" width="50" height="30" as="geometry" />
        </mxCell>
        <mxCell id="BsjhRukXPoWs5F6D_RNB-17" value="" style="endArrow=none;html=1;rounded=0;exitX=1;exitY=0.5;exitDx=0;exitDy=0;" edge="1" parent="1" source="BsjhRukXPoWs5F6D_RNB-16" target="BsjhRukXPoWs5F6D_RNB-18">
          <mxGeometry width="50" height="50" relative="1" as="geometry">
            <mxPoint x="754" y="722" as="sourcePoint" />
            <mxPoint x="799" y="722" as="targetPoint" />
          </mxGeometry>
        </mxCell>
        <mxCell id="BsjhRukXPoWs5F6D_RNB-18" value="" style="ellipse;whiteSpace=wrap;html=1;" vertex="1" parent="1">
          <mxGeometry x="789" y="712" width="20" height="20" as="geometry" />
        </mxCell>
        <mxCell id="BsjhRukXPoWs5F6D_RNB-19" value="" style="endArrow=none;html=1;rounded=0;exitX=1;exitY=0.5;exitDx=0;exitDy=0;" edge="1" parent="1" source="BsjhRukXPoWs5F6D_RNB-11" target="BsjhRukXPoWs5F6D_RNB-16">
          <mxGeometry width="50" height="50" relative="1" as="geometry">
            <mxPoint x="669" y="722" as="sourcePoint" />
            <mxPoint x="759" y="722" as="targetPoint" />
          </mxGeometry>
        </mxCell>
        <mxCell id="BsjhRukXPoWs5F6D_RNB-16" value="" style="ellipse;whiteSpace=wrap;html=1;" vertex="1" parent="1">
          <mxGeometry x="714" y="712" width="20" height="20" as="geometry" />
        </mxCell>
        <mxCell id="BsjhRukXPoWs5F6D_RNB-20" value="" style="ellipse;whiteSpace=wrap;html=1;" vertex="1" parent="1">
          <mxGeometry x="654" y="712" width="20" height="20" as="geometry" />
        </mxCell>
        <mxCell id="BsjhRukXPoWs5F6D_RNB-21" value="" style="endArrow=none;html=1;rounded=0;exitX=1;exitY=0.5;exitDx=0;exitDy=0;" edge="1" parent="1" source="BsjhRukXPoWs5F6D_RNB-23">
          <mxGeometry width="50" height="50" relative="1" as="geometry">
            <mxPoint x="474" y="772" as="sourcePoint" />
            <mxPoint x="524" y="722" as="targetPoint" />
          </mxGeometry>
        </mxCell>
        <mxCell id="BsjhRukXPoWs5F6D_RNB-22" value="" style="endArrow=none;html=1;rounded=0;exitX=1;exitY=0.5;exitDx=0;exitDy=0;" edge="1" parent="1" source="BsjhRukXPoWs5F6D_RNB-31">
          <mxGeometry width="50" height="50" relative="1" as="geometry">
            <mxPoint x="614" y="718" as="sourcePoint" />
            <mxPoint x="624" y="722" as="targetPoint" />
          </mxGeometry>
        </mxCell>
        <mxCell id="BsjhRukXPoWs5F6D_RNB-23" value="" style="ellipse;whiteSpace=wrap;html=1;" vertex="1" parent="1">
          <mxGeometry x="519" y="712" width="20" height="20" as="geometry" />
        </mxCell>
        <mxCell id="BsjhRukXPoWs5F6D_RNB-24" value="200" style="text;html=1;align=center;verticalAlign=middle;resizable=0;points=[];autosize=1;strokeColor=none;fillColor=none;" vertex="1" parent="1">
          <mxGeometry x="539" y="688" width="40" height="30" as="geometry" />
        </mxCell>
        <mxCell id="BsjhRukXPoWs5F6D_RNB-25" value="" style="endArrow=none;html=1;rounded=0;exitX=1;exitY=0.5;exitDx=0;exitDy=0;" edge="1" parent="1" source="BsjhRukXPoWs5F6D_RNB-29">
          <mxGeometry width="50" height="50" relative="1" as="geometry">
            <mxPoint x="614" y="772" as="sourcePoint" />
            <mxPoint x="664" y="722" as="targetPoint" />
          </mxGeometry>
        </mxCell>
        <mxCell id="BsjhRukXPoWs5F6D_RNB-26" value="" style="endArrow=none;html=1;rounded=0;exitX=1;exitY=0.5;exitDx=0;exitDy=0;entryX=0;entryY=0.5;entryDx=0;entryDy=0;" edge="1" parent="1" source="BsjhRukXPoWs5F6D_RNB-31" target="BsjhRukXPoWs5F6D_RNB-29">
          <mxGeometry width="50" height="50" relative="1" as="geometry">
            <mxPoint x="554" y="760" as="sourcePoint" />
            <mxPoint x="604" y="710" as="targetPoint" />
          </mxGeometry>
        </mxCell>
        <mxCell id="BsjhRukXPoWs5F6D_RNB-27" value="2865" style="text;html=1;align=center;verticalAlign=middle;resizable=0;points=[];autosize=1;strokeColor=none;fillColor=none;" vertex="1" parent="1">
          <mxGeometry x="604" y="688" width="50" height="30" as="geometry" />
        </mxCell>
        <mxCell id="BsjhRukXPoWs5F6D_RNB-28" value="" style="endArrow=none;html=1;rounded=0;exitX=1;exitY=0.5;exitDx=0;exitDy=0;" edge="1" parent="1" source="BsjhRukXPoWs5F6D_RNB-31" target="BsjhRukXPoWs5F6D_RNB-29">
          <mxGeometry width="50" height="50" relative="1" as="geometry">
            <mxPoint x="619" y="722" as="sourcePoint" />
            <mxPoint x="664" y="722" as="targetPoint" />
          </mxGeometry>
        </mxCell>
        <mxCell id="BsjhRukXPoWs5F6D_RNB-29" value="" style="ellipse;whiteSpace=wrap;html=1;" vertex="1" parent="1">
          <mxGeometry x="654" y="712" width="20" height="20" as="geometry" />
        </mxCell>
        <mxCell id="BsjhRukXPoWs5F6D_RNB-30" value="" style="endArrow=none;html=1;rounded=0;exitX=1;exitY=0.5;exitDx=0;exitDy=0;" edge="1" parent="1" source="BsjhRukXPoWs5F6D_RNB-23" target="BsjhRukXPoWs5F6D_RNB-31">
          <mxGeometry width="50" height="50" relative="1" as="geometry">
            <mxPoint x="534" y="722" as="sourcePoint" />
            <mxPoint x="624" y="722" as="targetPoint" />
          </mxGeometry>
        </mxCell>
        <mxCell id="BsjhRukXPoWs5F6D_RNB-31" value="" style="ellipse;whiteSpace=wrap;html=1;" vertex="1" parent="1">
          <mxGeometry x="579" y="712" width="20" height="20" as="geometry" />
        </mxCell>
        <mxCell id="BsjhRukXPoWs5F6D_RNB-32" value="" style="ellipse;whiteSpace=wrap;html=1;" vertex="1" parent="1">
          <mxGeometry x="519" y="712" width="20" height="20" as="geometry" />
        </mxCell>
        <mxCell id="BsjhRukXPoWs5F6D_RNB-33" value="" style="endArrow=none;html=1;rounded=0;exitX=1;exitY=0.5;exitDx=0;exitDy=0;" edge="1" parent="1" source="BsjhRukXPoWs5F6D_RNB-35">
          <mxGeometry width="50" height="50" relative="1" as="geometry">
            <mxPoint x="339" y="772" as="sourcePoint" />
            <mxPoint x="389" y="722" as="targetPoint" />
          </mxGeometry>
        </mxCell>
        <mxCell id="BsjhRukXPoWs5F6D_RNB-34" value="" style="endArrow=none;html=1;rounded=0;exitX=1;exitY=0.5;exitDx=0;exitDy=0;" edge="1" parent="1" source="BsjhRukXPoWs5F6D_RNB-43">
          <mxGeometry width="50" height="50" relative="1" as="geometry">
            <mxPoint x="479" y="718" as="sourcePoint" />
            <mxPoint x="489" y="722" as="targetPoint" />
          </mxGeometry>
        </mxCell>
        <mxCell id="BsjhRukXPoWs5F6D_RNB-35" value="" style="ellipse;whiteSpace=wrap;html=1;" vertex="1" parent="1">
          <mxGeometry x="384" y="712" width="20" height="20" as="geometry" />
        </mxCell>
        <mxCell id="BsjhRukXPoWs5F6D_RNB-36" value="100" style="text;html=1;align=center;verticalAlign=middle;resizable=0;points=[];autosize=1;strokeColor=none;fillColor=none;" vertex="1" parent="1">
          <mxGeometry x="404" y="688" width="40" height="30" as="geometry" />
        </mxCell>
        <mxCell id="BsjhRukXPoWs5F6D_RNB-37" value="" style="endArrow=none;html=1;rounded=0;exitX=1;exitY=0.5;exitDx=0;exitDy=0;" edge="1" parent="1" source="BsjhRukXPoWs5F6D_RNB-41">
          <mxGeometry width="50" height="50" relative="1" as="geometry">
            <mxPoint x="479" y="772" as="sourcePoint" />
            <mxPoint x="529" y="722" as="targetPoint" />
          </mxGeometry>
        </mxCell>
        <mxCell id="BsjhRukXPoWs5F6D_RNB-38" value="" style="endArrow=none;html=1;rounded=0;exitX=1;exitY=0.5;exitDx=0;exitDy=0;entryX=0;entryY=0.5;entryDx=0;entryDy=0;" edge="1" parent="1" source="BsjhRukXPoWs5F6D_RNB-43" target="BsjhRukXPoWs5F6D_RNB-41">
          <mxGeometry width="50" height="50" relative="1" as="geometry">
            <mxPoint x="419" y="760" as="sourcePoint" />
            <mxPoint x="469" y="710" as="targetPoint" />
          </mxGeometry>
        </mxCell>
        <mxCell id="BsjhRukXPoWs5F6D_RNB-39" value="21400" style="text;html=1;align=center;verticalAlign=middle;resizable=0;points=[];autosize=1;strokeColor=none;fillColor=none;" vertex="1" parent="1">
          <mxGeometry x="464" y="688" width="60" height="30" as="geometry" />
        </mxCell>
        <mxCell id="BsjhRukXPoWs5F6D_RNB-40" value="" style="endArrow=none;html=1;rounded=0;exitX=1;exitY=0.5;exitDx=0;exitDy=0;" edge="1" parent="1" source="BsjhRukXPoWs5F6D_RNB-43" target="BsjhRukXPoWs5F6D_RNB-41">
          <mxGeometry width="50" height="50" relative="1" as="geometry">
            <mxPoint x="484" y="722" as="sourcePoint" />
            <mxPoint x="529" y="722" as="targetPoint" />
          </mxGeometry>
        </mxCell>
        <mxCell id="BsjhRukXPoWs5F6D_RNB-41" value="" style="ellipse;whiteSpace=wrap;html=1;" vertex="1" parent="1">
          <mxGeometry x="519" y="712" width="20" height="20" as="geometry" />
        </mxCell>
        <mxCell id="BsjhRukXPoWs5F6D_RNB-42" value="" style="endArrow=none;html=1;rounded=0;exitX=1;exitY=0.5;exitDx=0;exitDy=0;" edge="1" parent="1" source="BsjhRukXPoWs5F6D_RNB-35" target="BsjhRukXPoWs5F6D_RNB-43">
          <mxGeometry width="50" height="50" relative="1" as="geometry">
            <mxPoint x="399" y="722" as="sourcePoint" />
            <mxPoint x="489" y="722" as="targetPoint" />
          </mxGeometry>
        </mxCell>
        <mxCell id="BsjhRukXPoWs5F6D_RNB-43" value="" style="ellipse;whiteSpace=wrap;html=1;" vertex="1" parent="1">
          <mxGeometry x="444" y="712" width="20" height="20" as="geometry" />
        </mxCell>
        <mxCell id="BsjhRukXPoWs5F6D_RNB-44" value="" style="ellipse;whiteSpace=wrap;html=1;" vertex="1" parent="1">
          <mxGeometry x="384" y="712" width="20" height="20" as="geometry" />
        </mxCell>
        <mxCell id="BsjhRukXPoWs5F6D_RNB-45" value="" style="endArrow=none;html=1;rounded=0;exitX=1;exitY=0.5;exitDx=0;exitDy=0;" edge="1" parent="1" source="BsjhRukXPoWs5F6D_RNB-47">
          <mxGeometry width="50" height="50" relative="1" as="geometry">
            <mxPoint x="204" y="772" as="sourcePoint" />
            <mxPoint x="254" y="722" as="targetPoint" />
          </mxGeometry>
        </mxCell>
        <mxCell id="BsjhRukXPoWs5F6D_RNB-46" value="" style="endArrow=none;html=1;rounded=0;exitX=1;exitY=0.5;exitDx=0;exitDy=0;" edge="1" parent="1" source="BsjhRukXPoWs5F6D_RNB-55">
          <mxGeometry width="50" height="50" relative="1" as="geometry">
            <mxPoint x="344" y="718" as="sourcePoint" />
            <mxPoint x="354" y="722" as="targetPoint" />
          </mxGeometry>
        </mxCell>
        <mxCell id="BsjhRukXPoWs5F6D_RNB-47" value="" style="ellipse;whiteSpace=wrap;html=1;" vertex="1" parent="1">
          <mxGeometry x="249" y="712" width="20" height="20" as="geometry" />
        </mxCell>
        <mxCell id="BsjhRukXPoWs5F6D_RNB-48" value="100" style="text;html=1;align=center;verticalAlign=middle;resizable=0;points=[];autosize=1;strokeColor=none;fillColor=none;" vertex="1" parent="1">
          <mxGeometry x="269" y="688" width="40" height="30" as="geometry" />
        </mxCell>
        <mxCell id="BsjhRukXPoWs5F6D_RNB-49" value="" style="endArrow=none;html=1;rounded=0;exitX=1;exitY=0.5;exitDx=0;exitDy=0;" edge="1" parent="1" source="BsjhRukXPoWs5F6D_RNB-53">
          <mxGeometry width="50" height="50" relative="1" as="geometry">
            <mxPoint x="344" y="772" as="sourcePoint" />
            <mxPoint x="394" y="722" as="targetPoint" />
          </mxGeometry>
        </mxCell>
        <mxCell id="BsjhRukXPoWs5F6D_RNB-50" value="" style="endArrow=none;html=1;rounded=0;exitX=1;exitY=0.5;exitDx=0;exitDy=0;entryX=0;entryY=0.5;entryDx=0;entryDy=0;" edge="1" parent="1" source="BsjhRukXPoWs5F6D_RNB-55" target="BsjhRukXPoWs5F6D_RNB-53">
          <mxGeometry width="50" height="50" relative="1" as="geometry">
            <mxPoint x="284" y="760" as="sourcePoint" />
            <mxPoint x="334" y="710" as="targetPoint" />
          </mxGeometry>
        </mxCell>
        <mxCell id="BsjhRukXPoWs5F6D_RNB-51" value="2760" style="text;html=1;align=center;verticalAlign=middle;resizable=0;points=[];autosize=1;strokeColor=none;fillColor=none;" vertex="1" parent="1">
          <mxGeometry x="334" y="688" width="50" height="30" as="geometry" />
        </mxCell>
        <mxCell id="BsjhRukXPoWs5F6D_RNB-52" value="" style="endArrow=none;html=1;rounded=0;exitX=1;exitY=0.5;exitDx=0;exitDy=0;" edge="1" parent="1" source="BsjhRukXPoWs5F6D_RNB-55" target="BsjhRukXPoWs5F6D_RNB-53">
          <mxGeometry width="50" height="50" relative="1" as="geometry">
            <mxPoint x="349" y="722" as="sourcePoint" />
            <mxPoint x="394" y="722" as="targetPoint" />
          </mxGeometry>
        </mxCell>
        <mxCell id="BsjhRukXPoWs5F6D_RNB-53" value="" style="ellipse;whiteSpace=wrap;html=1;" vertex="1" parent="1">
          <mxGeometry x="384" y="712" width="20" height="20" as="geometry" />
        </mxCell>
        <mxCell id="BsjhRukXPoWs5F6D_RNB-54" value="" style="endArrow=none;html=1;rounded=0;exitX=1;exitY=0.5;exitDx=0;exitDy=0;" edge="1" parent="1" source="BsjhRukXPoWs5F6D_RNB-47" target="BsjhRukXPoWs5F6D_RNB-55">
          <mxGeometry width="50" height="50" relative="1" as="geometry">
            <mxPoint x="264" y="722" as="sourcePoint" />
            <mxPoint x="354" y="722" as="targetPoint" />
          </mxGeometry>
        </mxCell>
        <mxCell id="BsjhRukXPoWs5F6D_RNB-55" value="" style="ellipse;whiteSpace=wrap;html=1;" vertex="1" parent="1">
          <mxGeometry x="309" y="712" width="20" height="20" as="geometry" />
        </mxCell>
        <mxCell id="BsjhRukXPoWs5F6D_RNB-56" value="" style="ellipse;whiteSpace=wrap;html=1;" vertex="1" parent="1">
          <mxGeometry x="249" y="712" width="20" height="20" as="geometry" />
        </mxCell>
        <mxCell id="BsjhRukXPoWs5F6D_RNB-57" value="" style="endArrow=none;html=1;rounded=0;exitX=1;exitY=0.5;exitDx=0;exitDy=0;" edge="1" parent="1" source="BsjhRukXPoWs5F6D_RNB-59">
          <mxGeometry width="50" height="50" relative="1" as="geometry">
            <mxPoint x="69" y="772" as="sourcePoint" />
            <mxPoint x="119" y="722" as="targetPoint" />
          </mxGeometry>
        </mxCell>
        <mxCell id="BsjhRukXPoWs5F6D_RNB-58" value="" style="endArrow=none;html=1;rounded=0;exitX=1;exitY=0.5;exitDx=0;exitDy=0;" edge="1" parent="1" source="BsjhRukXPoWs5F6D_RNB-67">
          <mxGeometry width="50" height="50" relative="1" as="geometry">
            <mxPoint x="209" y="718" as="sourcePoint" />
            <mxPoint x="219" y="722" as="targetPoint" />
          </mxGeometry>
        </mxCell>
        <mxCell id="BsjhRukXPoWs5F6D_RNB-59" value="" style="ellipse;whiteSpace=wrap;html=1;" vertex="1" parent="1">
          <mxGeometry x="114" y="712" width="20" height="20" as="geometry" />
        </mxCell>
        <mxCell id="BsjhRukXPoWs5F6D_RNB-60" value="200" style="text;html=1;align=center;verticalAlign=middle;resizable=0;points=[];autosize=1;strokeColor=none;fillColor=none;" vertex="1" parent="1">
          <mxGeometry x="134" y="688" width="40" height="30" as="geometry" />
        </mxCell>
        <mxCell id="BsjhRukXPoWs5F6D_RNB-61" value="" style="endArrow=none;html=1;rounded=0;exitX=1;exitY=0.5;exitDx=0;exitDy=0;" edge="1" parent="1" source="BsjhRukXPoWs5F6D_RNB-65">
          <mxGeometry width="50" height="50" relative="1" as="geometry">
            <mxPoint x="209" y="772" as="sourcePoint" />
            <mxPoint x="259" y="722" as="targetPoint" />
          </mxGeometry>
        </mxCell>
        <mxCell id="BsjhRukXPoWs5F6D_RNB-62" value="" style="endArrow=none;html=1;rounded=0;exitX=1;exitY=0.5;exitDx=0;exitDy=0;entryX=0;entryY=0.5;entryDx=0;entryDy=0;" edge="1" parent="1" source="BsjhRukXPoWs5F6D_RNB-67" target="BsjhRukXPoWs5F6D_RNB-65">
          <mxGeometry width="50" height="50" relative="1" as="geometry">
            <mxPoint x="149" y="760" as="sourcePoint" />
            <mxPoint x="199" y="710" as="targetPoint" />
          </mxGeometry>
        </mxCell>
        <mxCell id="BsjhRukXPoWs5F6D_RNB-63" value="2865" style="text;html=1;align=center;verticalAlign=middle;resizable=0;points=[];autosize=1;strokeColor=none;fillColor=none;" vertex="1" parent="1">
          <mxGeometry x="199" y="688" width="50" height="30" as="geometry" />
        </mxCell>
        <mxCell id="BsjhRukXPoWs5F6D_RNB-64" value="" style="endArrow=none;html=1;rounded=0;exitX=1;exitY=0.5;exitDx=0;exitDy=0;" edge="1" parent="1" source="BsjhRukXPoWs5F6D_RNB-67" target="BsjhRukXPoWs5F6D_RNB-65">
          <mxGeometry width="50" height="50" relative="1" as="geometry">
            <mxPoint x="214" y="722" as="sourcePoint" />
            <mxPoint x="259" y="722" as="targetPoint" />
          </mxGeometry>
        </mxCell>
        <mxCell id="BsjhRukXPoWs5F6D_RNB-65" value="" style="ellipse;whiteSpace=wrap;html=1;" vertex="1" parent="1">
          <mxGeometry x="249" y="712" width="20" height="20" as="geometry" />
        </mxCell>
        <mxCell id="BsjhRukXPoWs5F6D_RNB-66" value="" style="endArrow=none;html=1;rounded=0;exitX=1;exitY=0.5;exitDx=0;exitDy=0;" edge="1" parent="1" source="BsjhRukXPoWs5F6D_RNB-59" target="BsjhRukXPoWs5F6D_RNB-67">
          <mxGeometry width="50" height="50" relative="1" as="geometry">
            <mxPoint x="129" y="722" as="sourcePoint" />
            <mxPoint x="219" y="722" as="targetPoint" />
          </mxGeometry>
        </mxCell>
        <mxCell id="BsjhRukXPoWs5F6D_RNB-67" value="" style="ellipse;whiteSpace=wrap;html=1;" vertex="1" parent="1">
          <mxGeometry x="174" y="712" width="20" height="20" as="geometry" />
        </mxCell>
        <mxCell id="BsjhRukXPoWs5F6D_RNB-68" value="" style="ellipse;whiteSpace=wrap;html=1;" vertex="1" parent="1">
          <mxGeometry x="114" y="712" width="20" height="20" as="geometry" />
        </mxCell>
        <mxCell id="BsjhRukXPoWs5F6D_RNB-70" value="" style="endArrow=none;html=1;rounded=0;exitX=1;exitY=0.5;exitDx=0;exitDy=0;" edge="1" parent="1" source="BsjhRukXPoWs5F6D_RNB-79">
          <mxGeometry width="50" height="50" relative="1" as="geometry">
            <mxPoint x="74" y="718" as="sourcePoint" />
            <mxPoint x="84" y="722" as="targetPoint" />
          </mxGeometry>
        </mxCell>
        <mxCell id="BsjhRukXPoWs5F6D_RNB-71" value="" style="ellipse;whiteSpace=wrap;html=1;" vertex="1" parent="1">
          <mxGeometry x="39" y="800" width="20" height="20" as="geometry" />
        </mxCell>
        <mxCell id="BsjhRukXPoWs5F6D_RNB-73" value="" style="endArrow=none;html=1;rounded=0;exitX=1;exitY=0.5;exitDx=0;exitDy=0;" edge="1" parent="1" source="BsjhRukXPoWs5F6D_RNB-77">
          <mxGeometry width="50" height="50" relative="1" as="geometry">
            <mxPoint x="74" y="772" as="sourcePoint" />
            <mxPoint x="124" y="722" as="targetPoint" />
          </mxGeometry>
        </mxCell>
        <mxCell id="BsjhRukXPoWs5F6D_RNB-74" value="" style="endArrow=none;html=1;rounded=0;exitX=1;exitY=0.5;exitDx=0;exitDy=0;entryX=0;entryY=0.5;entryDx=0;entryDy=0;" edge="1" parent="1" source="BsjhRukXPoWs5F6D_RNB-79" target="BsjhRukXPoWs5F6D_RNB-77">
          <mxGeometry width="50" height="50" relative="1" as="geometry">
            <mxPoint x="14" y="760" as="sourcePoint" />
            <mxPoint x="64" y="710" as="targetPoint" />
          </mxGeometry>
        </mxCell>
        <mxCell id="BsjhRukXPoWs5F6D_RNB-75" value="8970" style="text;html=1;align=center;verticalAlign=middle;resizable=0;points=[];autosize=1;strokeColor=none;fillColor=none;" vertex="1" parent="1">
          <mxGeometry x="64" y="688" width="50" height="30" as="geometry" />
        </mxCell>
        <mxCell id="BsjhRukXPoWs5F6D_RNB-76" value="" style="endArrow=none;html=1;rounded=0;exitX=1;exitY=0.5;exitDx=0;exitDy=0;" edge="1" parent="1" source="BsjhRukXPoWs5F6D_RNB-79" target="BsjhRukXPoWs5F6D_RNB-77">
          <mxGeometry width="50" height="50" relative="1" as="geometry">
            <mxPoint x="79" y="722" as="sourcePoint" />
            <mxPoint x="124" y="722" as="targetPoint" />
          </mxGeometry>
        </mxCell>
        <mxCell id="BsjhRukXPoWs5F6D_RNB-77" value="" style="ellipse;whiteSpace=wrap;html=1;" vertex="1" parent="1">
          <mxGeometry x="114" y="712" width="20" height="20" as="geometry" />
        </mxCell>
        <mxCell id="BsjhRukXPoWs5F6D_RNB-78" value="" style="endArrow=none;html=1;rounded=0;exitX=0.5;exitY=0;exitDx=0;exitDy=0;entryX=0.5;entryY=1;entryDx=0;entryDy=0;" edge="1" parent="1" source="BsjhRukXPoWs5F6D_RNB-71" target="BsjhRukXPoWs5F6D_RNB-79">
          <mxGeometry width="50" height="50" relative="1" as="geometry">
            <mxPoint x="-6" y="722" as="sourcePoint" />
            <mxPoint x="49" y="740" as="targetPoint" />
          </mxGeometry>
        </mxCell>
        <mxCell id="BsjhRukXPoWs5F6D_RNB-79" value="" style="ellipse;whiteSpace=wrap;html=1;" vertex="1" parent="1">
          <mxGeometry x="39" y="712" width="20" height="20" as="geometry" />
        </mxCell>
        <mxCell id="BsjhRukXPoWs5F6D_RNB-80" value="3000" style="text;html=1;align=center;verticalAlign=middle;resizable=0;points=[];autosize=1;strokeColor=none;fillColor=none;" vertex="1" parent="1">
          <mxGeometry x="-15" y="748" width="50" height="30" as="geometry" />
        </mxCell>
        <mxCell id="BsjhRukXPoWs5F6D_RNB-81" value="" style="ellipse;whiteSpace=wrap;html=1;" vertex="1" parent="1">
          <mxGeometry x="174" y="800" width="20" height="20" as="geometry" />
        </mxCell>
        <mxCell id="BsjhRukXPoWs5F6D_RNB-82" value="" style="endArrow=none;html=1;rounded=0;exitX=1;exitY=0.5;exitDx=0;exitDy=0;" edge="1" parent="1" source="BsjhRukXPoWs5F6D_RNB-84">
          <mxGeometry width="50" height="50" relative="1" as="geometry">
            <mxPoint x="-6" y="860" as="sourcePoint" />
            <mxPoint x="44" y="810" as="targetPoint" />
          </mxGeometry>
        </mxCell>
        <mxCell id="BsjhRukXPoWs5F6D_RNB-83" value="" style="endArrow=none;html=1;rounded=0;exitX=1;exitY=0.5;exitDx=0;exitDy=0;" edge="1" parent="1" source="BsjhRukXPoWs5F6D_RNB-92">
          <mxGeometry width="50" height="50" relative="1" as="geometry">
            <mxPoint x="134" y="806" as="sourcePoint" />
            <mxPoint x="144" y="810" as="targetPoint" />
          </mxGeometry>
        </mxCell>
        <mxCell id="BsjhRukXPoWs5F6D_RNB-84" value="" style="ellipse;whiteSpace=wrap;html=1;" vertex="1" parent="1">
          <mxGeometry x="39" y="800" width="20" height="20" as="geometry" />
        </mxCell>
        <mxCell id="BsjhRukXPoWs5F6D_RNB-85" value="3000" style="text;html=1;align=center;verticalAlign=middle;resizable=0;points=[];autosize=1;strokeColor=none;fillColor=none;" vertex="1" parent="1">
          <mxGeometry x="54" y="776" width="50" height="30" as="geometry" />
        </mxCell>
        <mxCell id="BsjhRukXPoWs5F6D_RNB-86" value="" style="endArrow=none;html=1;rounded=0;exitX=1;exitY=0.5;exitDx=0;exitDy=0;" edge="1" parent="1" source="BsjhRukXPoWs5F6D_RNB-90">
          <mxGeometry width="50" height="50" relative="1" as="geometry">
            <mxPoint x="134" y="860" as="sourcePoint" />
            <mxPoint x="184" y="810" as="targetPoint" />
          </mxGeometry>
        </mxCell>
        <mxCell id="BsjhRukXPoWs5F6D_RNB-87" value="" style="endArrow=none;html=1;rounded=0;exitX=1;exitY=0.5;exitDx=0;exitDy=0;entryX=0;entryY=0.5;entryDx=0;entryDy=0;" edge="1" parent="1" source="BsjhRukXPoWs5F6D_RNB-92" target="BsjhRukXPoWs5F6D_RNB-90">
          <mxGeometry width="50" height="50" relative="1" as="geometry">
            <mxPoint x="74" y="848" as="sourcePoint" />
            <mxPoint x="124" y="798" as="targetPoint" />
          </mxGeometry>
        </mxCell>
        <mxCell id="BsjhRukXPoWs5F6D_RNB-88" value="100" style="text;html=1;align=center;verticalAlign=middle;resizable=0;points=[];autosize=1;strokeColor=none;fillColor=none;" vertex="1" parent="1">
          <mxGeometry x="129" y="776" width="40" height="30" as="geometry" />
        </mxCell>
        <mxCell id="BsjhRukXPoWs5F6D_RNB-89" value="" style="endArrow=none;html=1;rounded=0;exitX=1;exitY=0.5;exitDx=0;exitDy=0;" edge="1" parent="1" source="BsjhRukXPoWs5F6D_RNB-92" target="BsjhRukXPoWs5F6D_RNB-90">
          <mxGeometry width="50" height="50" relative="1" as="geometry">
            <mxPoint x="139" y="810" as="sourcePoint" />
            <mxPoint x="184" y="810" as="targetPoint" />
          </mxGeometry>
        </mxCell>
        <mxCell id="BsjhRukXPoWs5F6D_RNB-90" value="" style="ellipse;whiteSpace=wrap;html=1;" vertex="1" parent="1">
          <mxGeometry x="174" y="800" width="20" height="20" as="geometry" />
        </mxCell>
        <mxCell id="BsjhRukXPoWs5F6D_RNB-91" value="" style="endArrow=none;html=1;rounded=0;exitX=1;exitY=0.5;exitDx=0;exitDy=0;" edge="1" parent="1" source="BsjhRukXPoWs5F6D_RNB-84" target="BsjhRukXPoWs5F6D_RNB-92">
          <mxGeometry width="50" height="50" relative="1" as="geometry">
            <mxPoint x="54" y="810" as="sourcePoint" />
            <mxPoint x="144" y="810" as="targetPoint" />
          </mxGeometry>
        </mxCell>
        <mxCell id="BsjhRukXPoWs5F6D_RNB-92" value="" style="ellipse;whiteSpace=wrap;html=1;" vertex="1" parent="1">
          <mxGeometry x="114" y="800" width="20" height="20" as="geometry" />
        </mxCell>
        <mxCell id="BsjhRukXPoWs5F6D_RNB-93" value="" style="ellipse;whiteSpace=wrap;html=1;" vertex="1" parent="1">
          <mxGeometry x="309" y="800" width="20" height="20" as="geometry" />
        </mxCell>
        <mxCell id="BsjhRukXPoWs5F6D_RNB-94" value="" style="endArrow=none;html=1;rounded=0;exitX=1;exitY=0.5;exitDx=0;exitDy=0;" edge="1" parent="1" source="BsjhRukXPoWs5F6D_RNB-96">
          <mxGeometry width="50" height="50" relative="1" as="geometry">
            <mxPoint x="129" y="860" as="sourcePoint" />
            <mxPoint x="179" y="810" as="targetPoint" />
          </mxGeometry>
        </mxCell>
        <mxCell id="BsjhRukXPoWs5F6D_RNB-95" value="" style="endArrow=none;html=1;rounded=0;exitX=1;exitY=0.5;exitDx=0;exitDy=0;" edge="1" parent="1" source="BsjhRukXPoWs5F6D_RNB-104">
          <mxGeometry width="50" height="50" relative="1" as="geometry">
            <mxPoint x="269" y="806" as="sourcePoint" />
            <mxPoint x="279" y="810" as="targetPoint" />
          </mxGeometry>
        </mxCell>
        <mxCell id="BsjhRukXPoWs5F6D_RNB-96" value="" style="ellipse;whiteSpace=wrap;html=1;" vertex="1" parent="1">
          <mxGeometry x="174" y="800" width="20" height="20" as="geometry" />
        </mxCell>
        <mxCell id="BsjhRukXPoWs5F6D_RNB-97" value="3000" style="text;html=1;align=center;verticalAlign=middle;resizable=0;points=[];autosize=1;strokeColor=none;fillColor=none;" vertex="1" parent="1">
          <mxGeometry x="199" y="776" width="50" height="30" as="geometry" />
        </mxCell>
        <mxCell id="BsjhRukXPoWs5F6D_RNB-98" value="" style="endArrow=none;html=1;rounded=0;exitX=1;exitY=0.5;exitDx=0;exitDy=0;" edge="1" parent="1" source="BsjhRukXPoWs5F6D_RNB-102">
          <mxGeometry width="50" height="50" relative="1" as="geometry">
            <mxPoint x="269" y="860" as="sourcePoint" />
            <mxPoint x="319" y="810" as="targetPoint" />
          </mxGeometry>
        </mxCell>
        <mxCell id="BsjhRukXPoWs5F6D_RNB-99" value="" style="endArrow=none;html=1;rounded=0;exitX=1;exitY=0.5;exitDx=0;exitDy=0;entryX=0;entryY=0.5;entryDx=0;entryDy=0;" edge="1" parent="1" source="BsjhRukXPoWs5F6D_RNB-104" target="BsjhRukXPoWs5F6D_RNB-102">
          <mxGeometry width="50" height="50" relative="1" as="geometry">
            <mxPoint x="209" y="848" as="sourcePoint" />
            <mxPoint x="259" y="798" as="targetPoint" />
          </mxGeometry>
        </mxCell>
        <mxCell id="BsjhRukXPoWs5F6D_RNB-100" value="спуск 1700" style="text;html=1;align=center;verticalAlign=middle;resizable=0;points=[];autosize=1;strokeColor=none;fillColor=none;" vertex="1" parent="1">
          <mxGeometry x="244" y="776" width="80" height="30" as="geometry" />
        </mxCell>
        <mxCell id="BsjhRukXPoWs5F6D_RNB-101" value="" style="endArrow=none;html=1;rounded=0;exitX=1;exitY=0.5;exitDx=0;exitDy=0;" edge="1" parent="1" source="BsjhRukXPoWs5F6D_RNB-104" target="BsjhRukXPoWs5F6D_RNB-102">
          <mxGeometry width="50" height="50" relative="1" as="geometry">
            <mxPoint x="274" y="810" as="sourcePoint" />
            <mxPoint x="319" y="810" as="targetPoint" />
          </mxGeometry>
        </mxCell>
        <mxCell id="BsjhRukXPoWs5F6D_RNB-102" value="" style="ellipse;whiteSpace=wrap;html=1;" vertex="1" parent="1">
          <mxGeometry x="309" y="800" width="20" height="20" as="geometry" />
        </mxCell>
        <mxCell id="BsjhRukXPoWs5F6D_RNB-103" value="" style="endArrow=none;html=1;rounded=0;exitX=1;exitY=0.5;exitDx=0;exitDy=0;" edge="1" parent="1" source="BsjhRukXPoWs5F6D_RNB-96" target="BsjhRukXPoWs5F6D_RNB-104">
          <mxGeometry width="50" height="50" relative="1" as="geometry">
            <mxPoint x="189" y="810" as="sourcePoint" />
            <mxPoint x="279" y="810" as="targetPoint" />
          </mxGeometry>
        </mxCell>
        <mxCell id="BsjhRukXPoWs5F6D_RNB-104" value="" style="ellipse;whiteSpace=wrap;html=1;" vertex="1" parent="1">
          <mxGeometry x="254" y="800" width="20" height="20" as="geometry" />
        </mxCell>
        <mxCell id="BsjhRukXPoWs5F6D_RNB-105" value="" style="ellipse;whiteSpace=wrap;html=1;" vertex="1" parent="1">
          <mxGeometry x="444" y="800" width="20" height="20" as="geometry" />
        </mxCell>
        <mxCell id="BsjhRukXPoWs5F6D_RNB-106" value="" style="endArrow=none;html=1;rounded=0;exitX=1;exitY=0.5;exitDx=0;exitDy=0;" edge="1" parent="1" source="BsjhRukXPoWs5F6D_RNB-108">
          <mxGeometry width="50" height="50" relative="1" as="geometry">
            <mxPoint x="264" y="860" as="sourcePoint" />
            <mxPoint x="314" y="810" as="targetPoint" />
          </mxGeometry>
        </mxCell>
        <mxCell id="BsjhRukXPoWs5F6D_RNB-107" value="" style="endArrow=none;html=1;rounded=0;exitX=1;exitY=0.5;exitDx=0;exitDy=0;" edge="1" parent="1" source="BsjhRukXPoWs5F6D_RNB-116">
          <mxGeometry width="50" height="50" relative="1" as="geometry">
            <mxPoint x="404" y="806" as="sourcePoint" />
            <mxPoint x="414" y="810" as="targetPoint" />
          </mxGeometry>
        </mxCell>
        <mxCell id="BsjhRukXPoWs5F6D_RNB-108" value="" style="ellipse;whiteSpace=wrap;html=1;" vertex="1" parent="1">
          <mxGeometry x="309" y="800" width="20" height="20" as="geometry" />
        </mxCell>
        <mxCell id="BsjhRukXPoWs5F6D_RNB-109" value="200" style="text;html=1;align=center;verticalAlign=middle;resizable=0;points=[];autosize=1;strokeColor=none;fillColor=none;" vertex="1" parent="1">
          <mxGeometry x="329" y="776" width="40" height="30" as="geometry" />
        </mxCell>
        <mxCell id="BsjhRukXPoWs5F6D_RNB-110" value="" style="endArrow=none;html=1;rounded=0;exitX=1;exitY=0.5;exitDx=0;exitDy=0;" edge="1" parent="1" source="BsjhRukXPoWs5F6D_RNB-114">
          <mxGeometry width="50" height="50" relative="1" as="geometry">
            <mxPoint x="404" y="860" as="sourcePoint" />
            <mxPoint x="454" y="810" as="targetPoint" />
          </mxGeometry>
        </mxCell>
        <mxCell id="BsjhRukXPoWs5F6D_RNB-111" value="" style="endArrow=none;html=1;rounded=0;exitX=1;exitY=0.5;exitDx=0;exitDy=0;entryX=0;entryY=0.5;entryDx=0;entryDy=0;" edge="1" parent="1" source="BsjhRukXPoWs5F6D_RNB-116" target="BsjhRukXPoWs5F6D_RNB-114">
          <mxGeometry width="50" height="50" relative="1" as="geometry">
            <mxPoint x="344" y="848" as="sourcePoint" />
            <mxPoint x="394" y="798" as="targetPoint" />
          </mxGeometry>
        </mxCell>
        <mxCell id="BsjhRukXPoWs5F6D_RNB-112" value="3000" style="text;html=1;align=center;verticalAlign=middle;resizable=0;points=[];autosize=1;strokeColor=none;fillColor=none;" vertex="1" parent="1">
          <mxGeometry x="394" y="776" width="50" height="30" as="geometry" />
        </mxCell>
        <mxCell id="BsjhRukXPoWs5F6D_RNB-113" value="" style="endArrow=none;html=1;rounded=0;exitX=1;exitY=0.5;exitDx=0;exitDy=0;" edge="1" parent="1" source="BsjhRukXPoWs5F6D_RNB-116" target="BsjhRukXPoWs5F6D_RNB-114">
          <mxGeometry width="50" height="50" relative="1" as="geometry">
            <mxPoint x="409" y="810" as="sourcePoint" />
            <mxPoint x="454" y="810" as="targetPoint" />
          </mxGeometry>
        </mxCell>
        <mxCell id="BsjhRukXPoWs5F6D_RNB-114" value="" style="ellipse;whiteSpace=wrap;html=1;" vertex="1" parent="1">
          <mxGeometry x="444" y="800" width="20" height="20" as="geometry" />
        </mxCell>
        <mxCell id="BsjhRukXPoWs5F6D_RNB-115" value="" style="endArrow=none;html=1;rounded=0;exitX=1;exitY=0.5;exitDx=0;exitDy=0;" edge="1" parent="1" source="BsjhRukXPoWs5F6D_RNB-108" target="BsjhRukXPoWs5F6D_RNB-116">
          <mxGeometry width="50" height="50" relative="1" as="geometry">
            <mxPoint x="324" y="810" as="sourcePoint" />
            <mxPoint x="414" y="810" as="targetPoint" />
          </mxGeometry>
        </mxCell>
        <mxCell id="BsjhRukXPoWs5F6D_RNB-116" value="" style="ellipse;whiteSpace=wrap;html=1;" vertex="1" parent="1">
          <mxGeometry x="369" y="800" width="20" height="20" as="geometry" />
        </mxCell>
        <mxCell id="BsjhRukXPoWs5F6D_RNB-117" value="" style="ellipse;whiteSpace=wrap;html=1;" vertex="1" parent="1">
          <mxGeometry x="579" y="800" width="20" height="20" as="geometry" />
        </mxCell>
        <mxCell id="BsjhRukXPoWs5F6D_RNB-118" value="" style="endArrow=none;html=1;rounded=0;exitX=1;exitY=0.5;exitDx=0;exitDy=0;" edge="1" parent="1" source="BsjhRukXPoWs5F6D_RNB-120">
          <mxGeometry width="50" height="50" relative="1" as="geometry">
            <mxPoint x="399" y="860" as="sourcePoint" />
            <mxPoint x="449" y="810" as="targetPoint" />
          </mxGeometry>
        </mxCell>
        <mxCell id="BsjhRukXPoWs5F6D_RNB-119" value="" style="endArrow=none;html=1;rounded=0;exitX=1;exitY=0.5;exitDx=0;exitDy=0;" edge="1" parent="1" source="BsjhRukXPoWs5F6D_RNB-128">
          <mxGeometry width="50" height="50" relative="1" as="geometry">
            <mxPoint x="539" y="806" as="sourcePoint" />
            <mxPoint x="549" y="810" as="targetPoint" />
          </mxGeometry>
        </mxCell>
        <mxCell id="BsjhRukXPoWs5F6D_RNB-120" value="" style="ellipse;whiteSpace=wrap;html=1;" vertex="1" parent="1">
          <mxGeometry x="444" y="800" width="20" height="20" as="geometry" />
        </mxCell>
        <mxCell id="BsjhRukXPoWs5F6D_RNB-121" value="6000" style="text;html=1;align=center;verticalAlign=middle;resizable=0;points=[];autosize=1;strokeColor=none;fillColor=none;" vertex="1" parent="1">
          <mxGeometry x="459" y="776" width="50" height="30" as="geometry" />
        </mxCell>
        <mxCell id="BsjhRukXPoWs5F6D_RNB-122" value="" style="endArrow=none;html=1;rounded=0;exitX=1;exitY=0.5;exitDx=0;exitDy=0;" edge="1" parent="1" source="BsjhRukXPoWs5F6D_RNB-126">
          <mxGeometry width="50" height="50" relative="1" as="geometry">
            <mxPoint x="539" y="860" as="sourcePoint" />
            <mxPoint x="589" y="810" as="targetPoint" />
          </mxGeometry>
        </mxCell>
        <mxCell id="BsjhRukXPoWs5F6D_RNB-123" value="" style="endArrow=none;html=1;rounded=0;exitX=1;exitY=0.5;exitDx=0;exitDy=0;entryX=0;entryY=0.5;entryDx=0;entryDy=0;" edge="1" parent="1" source="BsjhRukXPoWs5F6D_RNB-128" target="BsjhRukXPoWs5F6D_RNB-126">
          <mxGeometry width="50" height="50" relative="1" as="geometry">
            <mxPoint x="479" y="848" as="sourcePoint" />
            <mxPoint x="529" y="798" as="targetPoint" />
          </mxGeometry>
        </mxCell>
        <mxCell id="BsjhRukXPoWs5F6D_RNB-124" value="12000" style="text;html=1;align=center;verticalAlign=middle;resizable=0;points=[];autosize=1;strokeColor=none;fillColor=none;" vertex="1" parent="1">
          <mxGeometry x="524" y="776" width="60" height="30" as="geometry" />
        </mxCell>
        <mxCell id="BsjhRukXPoWs5F6D_RNB-125" value="" style="endArrow=none;html=1;rounded=0;exitX=1;exitY=0.5;exitDx=0;exitDy=0;" edge="1" parent="1" source="BsjhRukXPoWs5F6D_RNB-128" target="BsjhRukXPoWs5F6D_RNB-126">
          <mxGeometry width="50" height="50" relative="1" as="geometry">
            <mxPoint x="544" y="810" as="sourcePoint" />
            <mxPoint x="589" y="810" as="targetPoint" />
          </mxGeometry>
        </mxCell>
        <mxCell id="BsjhRukXPoWs5F6D_RNB-126" value="" style="ellipse;whiteSpace=wrap;html=1;" vertex="1" parent="1">
          <mxGeometry x="579" y="800" width="20" height="20" as="geometry" />
        </mxCell>
        <mxCell id="BsjhRukXPoWs5F6D_RNB-127" value="" style="endArrow=none;html=1;rounded=0;exitX=1;exitY=0.5;exitDx=0;exitDy=0;" edge="1" parent="1" source="BsjhRukXPoWs5F6D_RNB-120" target="BsjhRukXPoWs5F6D_RNB-128">
          <mxGeometry width="50" height="50" relative="1" as="geometry">
            <mxPoint x="459" y="810" as="sourcePoint" />
            <mxPoint x="549" y="810" as="targetPoint" />
          </mxGeometry>
        </mxCell>
        <mxCell id="BsjhRukXPoWs5F6D_RNB-128" value="" style="ellipse;whiteSpace=wrap;html=1;" vertex="1" parent="1">
          <mxGeometry x="504" y="800" width="20" height="20" as="geometry" />
        </mxCell>
        <mxCell id="BsjhRukXPoWs5F6D_RNB-129" value="" style="ellipse;whiteSpace=wrap;html=1;" vertex="1" parent="1">
          <mxGeometry x="714" y="800" width="20" height="20" as="geometry" />
        </mxCell>
        <mxCell id="BsjhRukXPoWs5F6D_RNB-130" value="" style="endArrow=none;html=1;rounded=0;exitX=1;exitY=0.5;exitDx=0;exitDy=0;" edge="1" parent="1" source="BsjhRukXPoWs5F6D_RNB-132">
          <mxGeometry width="50" height="50" relative="1" as="geometry">
            <mxPoint x="534" y="860" as="sourcePoint" />
            <mxPoint x="584" y="810" as="targetPoint" />
          </mxGeometry>
        </mxCell>
        <mxCell id="BsjhRukXPoWs5F6D_RNB-131" value="" style="endArrow=none;html=1;rounded=0;exitX=1;exitY=0.5;exitDx=0;exitDy=0;" edge="1" parent="1" source="BsjhRukXPoWs5F6D_RNB-140">
          <mxGeometry width="50" height="50" relative="1" as="geometry">
            <mxPoint x="674" y="806" as="sourcePoint" />
            <mxPoint x="684" y="810" as="targetPoint" />
          </mxGeometry>
        </mxCell>
        <mxCell id="BsjhRukXPoWs5F6D_RNB-132" value="" style="ellipse;whiteSpace=wrap;html=1;" vertex="1" parent="1">
          <mxGeometry x="579" y="800" width="20" height="20" as="geometry" />
        </mxCell>
        <mxCell id="BsjhRukXPoWs5F6D_RNB-133" value="6000" style="text;html=1;align=center;verticalAlign=middle;resizable=0;points=[];autosize=1;strokeColor=none;fillColor=none;" vertex="1" parent="1">
          <mxGeometry x="594" y="776" width="50" height="30" as="geometry" />
        </mxCell>
        <mxCell id="BsjhRukXPoWs5F6D_RNB-134" value="" style="endArrow=none;html=1;rounded=0;exitX=1;exitY=0.5;exitDx=0;exitDy=0;" edge="1" parent="1" source="BsjhRukXPoWs5F6D_RNB-138">
          <mxGeometry width="50" height="50" relative="1" as="geometry">
            <mxPoint x="674" y="860" as="sourcePoint" />
            <mxPoint x="724" y="810" as="targetPoint" />
          </mxGeometry>
        </mxCell>
        <mxCell id="BsjhRukXPoWs5F6D_RNB-135" value="" style="endArrow=none;html=1;rounded=0;exitX=1;exitY=0.5;exitDx=0;exitDy=0;entryX=0;entryY=0.5;entryDx=0;entryDy=0;" edge="1" parent="1" source="BsjhRukXPoWs5F6D_RNB-140" target="BsjhRukXPoWs5F6D_RNB-138">
          <mxGeometry width="50" height="50" relative="1" as="geometry">
            <mxPoint x="614" y="848" as="sourcePoint" />
            <mxPoint x="664" y="798" as="targetPoint" />
          </mxGeometry>
        </mxCell>
        <mxCell id="BsjhRukXPoWs5F6D_RNB-136" value="6000" style="text;html=1;align=center;verticalAlign=middle;resizable=0;points=[];autosize=1;strokeColor=none;fillColor=none;" vertex="1" parent="1">
          <mxGeometry x="664" y="776" width="50" height="30" as="geometry" />
        </mxCell>
        <mxCell id="BsjhRukXPoWs5F6D_RNB-137" value="" style="endArrow=none;html=1;rounded=0;exitX=1;exitY=0.5;exitDx=0;exitDy=0;" edge="1" parent="1" source="BsjhRukXPoWs5F6D_RNB-140" target="BsjhRukXPoWs5F6D_RNB-138">
          <mxGeometry width="50" height="50" relative="1" as="geometry">
            <mxPoint x="679" y="810" as="sourcePoint" />
            <mxPoint x="724" y="810" as="targetPoint" />
          </mxGeometry>
        </mxCell>
        <mxCell id="BsjhRukXPoWs5F6D_RNB-138" value="" style="ellipse;whiteSpace=wrap;html=1;" vertex="1" parent="1">
          <mxGeometry x="714" y="800" width="20" height="20" as="geometry" />
        </mxCell>
        <mxCell id="BsjhRukXPoWs5F6D_RNB-139" value="" style="endArrow=none;html=1;rounded=0;exitX=1;exitY=0.5;exitDx=0;exitDy=0;" edge="1" parent="1" source="BsjhRukXPoWs5F6D_RNB-132" target="BsjhRukXPoWs5F6D_RNB-140">
          <mxGeometry width="50" height="50" relative="1" as="geometry">
            <mxPoint x="594" y="810" as="sourcePoint" />
            <mxPoint x="684" y="810" as="targetPoint" />
          </mxGeometry>
        </mxCell>
        <mxCell id="BsjhRukXPoWs5F6D_RNB-140" value="" style="ellipse;whiteSpace=wrap;html=1;" vertex="1" parent="1">
          <mxGeometry x="639" y="800" width="20" height="20" as="geometry" />
        </mxCell>
      </root>
    </mxGraphModel>
  </diagram>
</mxfile>
